<svg width="22" height="28" viewBox="0 0 22 28" fill="none" xmlns="http://www.w3.org/2000/svg">
<path d="M20.625 6.875H16.5V5.5C16.5 4.04131 15.9205 2.64236 14.8891 1.61091C13.8576 0.579463 12.4587 0 11 0C9.54131 0 8.14236 0.579463 7.11091 1.61091C6.07946 2.64236 5.5 4.04131 5.5 5.5V6.875H1.375C1.01033 6.875 0.660591 7.01987 0.402728 7.27773C0.144866 7.53559 0 7.88533 0 8.25V23.375C0 24.469 0.434597 25.5182 1.20818 26.2918C1.98177 27.0654 3.03098 27.5 4.125 27.5H17.875C18.969 27.5 20.0182 27.0654 20.7918 26.2918C21.5654 25.5182 22 24.469 22 23.375V8.25C22 7.88533 21.8551 7.53559 21.5973 7.27773C21.3394 7.01987 20.9897 6.875 20.625 6.875ZM8.25 5.5C8.25 4.77065 8.53973 4.07118 9.05546 3.55546C9.57118 3.03973 10.2707 2.75 11 2.75C11.7293 2.75 12.4288 3.03973 12.9445 3.55546C13.4603 4.07118 13.75 4.77065 13.75 5.5V6.875H8.25V5.5ZM19.25 23.375C19.25 23.7397 19.1051 24.0894 18.8473 24.3473C18.5894 24.6051 18.2397 24.75 17.875 24.75H4.125C3.76033 24.75 3.41059 24.6051 3.15273 24.3473C2.89487 24.0894 2.75 23.7397 2.75 23.375V9.625H5.5V11C5.5 11.3647 5.64487 11.7144 5.90273 11.9723C6.16059 12.2301 6.51033 12.375 6.875 12.375C7.23967 12.375 7.58941 12.2301 7.84727 11.9723C8.10513 11.7144 8.25 11.3647 8.25 11V9.625H13.75V11C13.75 11.3647 13.8949 11.7144 14.1527 11.9723C14.4106 12.2301 14.7603 12.375 15.125 12.375C15.4897 12.375 15.8394 12.2301 16.0973 11.9723C16.3551 11.7144 16.5 11.3647 16.5 11V9.625H19.25V23.375Z" fill="white"/>
<path d="M19.25 23.375C19.25 23.7397 19.1051 24.0894 18.8473 24.3473C18.5894 24.6051 18.2397 24.75 17.875 24.75H4.125C3.76033 24.75 3.41059 24.6051 3.15273 24.3473C2.89487 24.0894 2.75 23.7397 2.75 23.375V9.625H5.5V11C5.5 11.3647 5.64487 11.7144 5.90273 11.9723C6.16059 12.2301 6.51033 12.375 6.875 12.375C7.23967 12.375 7.58941 12.2301 7.84727 11.9723C8.10513 11.7144 8.25 11.3647 8.25 11V9.625H13.75V11C13.75 11.3647 13.8949 11.7144 14.1527 11.9723C14.4106 12.2301 14.7603 12.375 15.125 12.375C15.4897 12.375 15.8394 12.2301 16.0973 11.9723C16.3551 11.7144 16.5 11.3647 16.5 11V9.625H19.25V23.375Z" fill="white"/>
</svg>
