<svg width="31" height="30" viewBox="0 0 31 30" fill="none" xmlns="http://www.w3.org/2000/svg">
<path d="M0.413086 14.2278C0.413086 10.7617 0.413086 9.02872 0.840862 7.61853C1.80401 4.44346 4.28867 1.9588 7.46375 0.995647C8.87394 0.567871 10.607 0.567871 14.073 0.567871C17.5391 0.567871 19.2721 0.567871 20.6823 0.995647C23.8574 1.9588 26.342 4.44346 27.3052 7.61853C27.7329 9.02872 27.7329 10.7617 27.7329 14.2278C27.7329 17.6939 27.7329 19.4269 27.3052 20.8371C26.342 24.0121 23.8574 26.4968 20.6823 27.46C19.2721 27.8877 17.5391 27.8877 14.073 27.8877C10.607 27.8877 8.87394 27.8877 7.46375 27.46C4.28867 26.4968 1.80401 24.0121 0.840862 20.8371C0.413086 19.4269 0.413086 17.6939 0.413086 14.2278Z" fill="#292929"/>
<path d="M30.0543 29.9041L18.9337 25.7751L22.8663 17.4243L30.0543 29.9041Z" fill="#292929"/>
</svg>
