<svg width="16" height="16" viewBox="0 0 16 16" fill="none" xmlns="http://www.w3.org/2000/svg">
<path fill-rule="evenodd" clip-rule="evenodd" d="M8.31888 15.4551C6.8444 15.4551 5.40303 15.0179 4.17704 14.1987C2.95106 13.3795 1.99552 12.2152 1.43126 10.853C0.867005 9.49072 0.71937 7.99175 1.00703 6.54561C1.29468 5.09946 2.00471 3.77109 3.04733 2.72847C4.08994 1.68586 5.41831 0.975831 6.86446 0.688174C8.31061 0.400518 9.80958 0.548154 11.1718 1.11241C12.5341 1.67667 13.6984 2.63221 14.5176 3.85819C15.3367 5.08418 15.774 6.52554 15.774 8.00002C15.774 9.97724 14.9885 11.8735 13.5904 13.2716C12.1923 14.6697 10.2961 15.4551 8.31888 15.4551ZM7.65993 2.68164C7.83469 2.50688 8.07172 2.4087 8.31888 2.4087C8.56603 2.4087 8.80306 2.50688 8.97782 2.68164C9.15258 2.85641 9.25076 3.09344 9.25076 3.34059V8.00002L9.23212 8.11185C9.22661 8.17606 9.21088 8.23897 9.18553 8.29823C9.16634 8.35352 9.14135 8.40662 9.11098 8.45665C9.08548 8.50962 9.05423 8.55962 9.01779 8.60575L8.86869 8.72689L8.78482 8.81076L6.36191 10.2086C6.21989 10.2891 6.05921 10.3309 5.89597 10.3297C5.68963 10.3312 5.48865 10.2641 5.32455 10.139C5.16044 10.0139 5.04249 9.83793 4.98919 9.63859C4.93589 9.43925 4.95026 9.22786 5.03004 9.03757C5.10982 8.84727 5.2505 8.68884 5.43002 8.58711L7.38699 7.45953V3.34059C7.38699 3.09344 7.48517 2.85641 7.65993 2.68164Z" fill="black"/>
</svg>
