<svg width="28" height="28" viewBox="0 0 28 28" fill="none" xmlns="http://www.w3.org/2000/svg">
<path d="M22.9834 3.73317H20.4167V2.44984C20.4167 2.10948 20.2815 1.78306 20.0408 1.54238C19.8001 1.30171 19.4737 1.1665 19.1334 1.1665C18.793 1.1665 18.4666 1.30171 18.2259 1.54238C17.9852 1.78306 17.85 2.10948 17.85 2.44984V3.73317H10.15V2.44984C10.15 2.10948 10.0148 1.78306 9.77414 1.54238C9.53347 1.30171 9.20705 1.1665 8.86669 1.1665C8.52633 1.1665 8.19991 1.30171 7.95923 1.54238C7.71856 1.78306 7.58335 2.10948 7.58335 2.44984V3.73317H5.01669C3.9956 3.73317 3.01634 4.13879 2.29433 4.86081C1.57231 5.58283 1.16669 6.56209 1.16669 7.58317V22.9832C1.16669 24.0043 1.57231 24.9835 2.29433 25.7055C3.01634 26.4275 3.9956 26.8332 5.01669 26.8332H22.9834C24.0044 26.8332 24.9837 26.4275 25.7057 25.7055C26.4277 24.9835 26.8334 24.0043 26.8334 22.9832V7.58317C26.8334 6.56209 26.4277 5.58283 25.7057 4.86081C24.9837 4.13879 24.0044 3.73317 22.9834 3.73317ZM24.2667 22.9832C24.2667 23.3235 24.1315 23.65 23.8908 23.8906C23.6501 24.1313 23.3237 24.2665 22.9834 24.2665H5.01669C4.67633 24.2665 4.34991 24.1313 4.10923 23.8906C3.86856 23.65 3.73335 23.3235 3.73335 22.9832V13.9998H24.2667V22.9832ZM24.2667 11.4332H3.73335V7.58317C3.73335 7.24281 3.86856 6.91639 4.10923 6.67572C4.34991 6.43505 4.67633 6.29984 5.01669 6.29984H7.58335V7.58317C7.58335 7.92353 7.71856 8.24995 7.95923 8.49062C8.19991 8.7313 8.52633 8.8665 8.86669 8.8665C9.20705 8.8665 9.53347 8.7313 9.77414 8.49062C10.0148 8.24995 10.15 7.92353 10.15 7.58317V6.29984H17.85V7.58317C17.85 7.92353 17.9852 8.24995 18.2259 8.49062C18.4666 8.7313 18.793 8.8665 19.1334 8.8665C19.4737 8.8665 19.8001 8.7313 20.0408 8.49062C20.2815 8.24995 20.4167 7.92353 20.4167 7.58317V6.29984H22.9834C23.3237 6.29984 23.6501 6.43505 23.8908 6.67572C24.1315 6.91639 24.2667 7.24281 24.2667 7.58317V11.4332Z" fill="black"/>
<path d="M24.2667 22.9832C24.2667 23.3235 24.1315 23.65 23.8908 23.8906C23.6501 24.1313 23.3237 24.2665 22.9834 24.2665H5.01669C4.67633 24.2665 4.34991 24.1313 4.10923 23.8906C3.86856 23.65 3.73335 23.3235 3.73335 22.9832V13.9998H24.2667V22.9832Z" fill="black"/>
</svg>
