<svg width="26" height="26" viewBox="0 0 26 26" fill="none" xmlns="http://www.w3.org/2000/svg">
<path d="M21.9834 2.73317H19.4167V1.44984C19.4167 1.10948 19.2815 0.783055 19.0408 0.542383C18.8001 0.301712 18.4737 0.166504 18.1334 0.166504C17.793 0.166504 17.4666 0.301712 17.2259 0.542383C16.9852 0.783055 16.85 1.10948 16.85 1.44984V2.73317H9.15002V1.44984C9.15002 1.10948 9.01481 0.783055 8.77414 0.542383C8.53347 0.301712 8.20705 0.166504 7.86669 0.166504C7.52633 0.166504 7.19991 0.301712 6.95923 0.542383C6.71856 0.783055 6.58335 1.10948 6.58335 1.44984V2.73317H4.01669C2.9956 2.73317 2.01634 3.13879 1.29433 3.86081C0.572311 4.58283 0.166687 5.56209 0.166687 6.58317V21.9832C0.166687 23.0043 0.572311 23.9835 1.29433 24.7055C2.01634 25.4275 2.9956 25.8332 4.01669 25.8332H21.9834C23.0044 25.8332 23.9837 25.4275 24.7057 24.7055C25.4277 23.9835 25.8334 23.0043 25.8334 21.9832V6.58317C25.8334 5.56209 25.4277 4.58283 24.7057 3.86081C23.9837 3.13879 23.0044 2.73317 21.9834 2.73317ZM23.2667 21.9832C23.2667 22.3235 23.1315 22.65 22.8908 22.8906C22.6501 23.1313 22.3237 23.2665 21.9834 23.2665H4.01669C3.67633 23.2665 3.34991 23.1313 3.10923 22.8906C2.86856 22.65 2.73335 22.3235 2.73335 21.9832V12.9998H23.2667V21.9832ZM23.2667 10.4332H2.73335V6.58317C2.73335 6.24281 2.86856 5.91639 3.10923 5.67572C3.34991 5.43505 3.67633 5.29984 4.01669 5.29984H6.58335V6.58317C6.58335 6.92353 6.71856 7.24995 6.95923 7.49062C7.19991 7.7313 7.52633 7.8665 7.86669 7.8665C8.20705 7.8665 8.53347 7.7313 8.77414 7.49062C9.01481 7.24995 9.15002 6.92353 9.15002 6.58317V5.29984H16.85V6.58317C16.85 6.92353 16.9852 7.24995 17.2259 7.49062C17.4666 7.7313 17.793 7.8665 18.1334 7.8665C18.4737 7.8665 18.8001 7.7313 19.0408 7.49062C19.2815 7.24995 19.4167 6.92353 19.4167 6.58317V5.29984H21.9834C22.3237 5.29984 22.6501 5.43505 22.8908 5.67572C23.1315 5.91639 23.2667 6.24281 23.2667 6.58317V10.4332Z" fill="black"/>
<path d="M23.2667 21.9832C23.2667 22.3235 23.1315 22.65 22.8908 22.8906C22.6501 23.1313 22.3237 23.2665 21.9834 23.2665H4.01669C3.67633 23.2665 3.34991 23.1313 3.10923 22.8906C2.86856 22.65 2.73335 22.3235 2.73335 21.9832V12.9998H23.2667V21.9832Z" fill="black"/>
</svg>
