<svg width="19" height="23" viewBox="0 0 19 23" fill="none" xmlns="http://www.w3.org/2000/svg">
<path fill-rule="evenodd" clip-rule="evenodd" d="M6.51486 5.65572C7.25658 5.16011 8.12861 4.89559 9.02067 4.89559C10.2169 4.89559 11.3641 5.37078 12.21 6.21663C13.0558 7.06249 13.531 8.20971 13.531 9.40592C13.531 10.298 13.2665 11.17 12.7709 11.9117C12.2753 12.6534 11.5709 13.2316 10.7467 13.5729C9.92254 13.9143 9.01566 14.0036 8.14074 13.8296C7.26583 13.6556 6.46216 13.226 5.83138 12.5952C5.2006 11.9644 4.77103 11.1608 4.597 10.2858C4.42297 9.41092 4.51229 8.50405 4.85366 7.67989C5.19504 6.85574 5.77314 6.15132 6.51486 5.65572ZM7.76776 11.281C8.13862 11.5288 8.57464 11.6611 9.02067 11.6611C9.61877 11.6611 10.1924 11.4235 10.6153 11.0006C11.0382 10.5776 11.2758 10.004 11.2758 9.40592C11.2758 8.95989 11.1436 8.52388 10.8958 8.15302C10.648 7.78216 10.2958 7.49311 9.88368 7.32242C9.4716 7.15173 9.01816 7.10707 8.5807 7.19409C8.14325 7.2811 7.74141 7.49589 7.42602 7.81128C7.11063 8.12667 6.89585 8.5285 6.80883 8.96596C6.72182 9.40342 6.76648 9.85686 6.93716 10.2689C7.10785 10.681 7.3969 11.0332 7.76776 11.281Z" fill="black"/>
<path fill-rule="evenodd" clip-rule="evenodd" d="M9.02067 20.2871C6.61891 18.0319 2.25517 13.1721 2.25517 9.40592C2.25517 7.6116 2.96796 5.89077 4.23674 4.62199C5.50551 3.35321 7.22634 2.64042 9.02067 2.64042C10.815 2.64042 12.5358 3.35321 13.8046 4.62199C15.0734 5.89077 15.7862 7.6116 15.7862 9.40592C15.7862 13.1721 11.4224 18.0432 9.02067 20.2871ZM6.51486 5.65572C7.25658 5.16011 8.12861 4.89559 9.02067 4.89559C10.2169 4.89559 11.3641 5.37078 12.21 6.21663C13.0558 7.06249 13.531 8.20971 13.531 9.40592C13.531 10.298 13.2665 11.17 12.7709 11.9117C12.2753 12.6534 11.5709 13.2316 10.7467 13.5729C9.92254 13.9143 9.01566 14.0036 8.14074 13.8296C7.26583 13.6556 6.46216 13.226 5.83138 12.5952C5.2006 11.9644 4.77103 11.1608 4.597 10.2858C4.42297 9.41092 4.51229 8.50405 4.85366 7.67989C5.19504 6.85574 5.77314 6.15132 6.51486 5.65572Z" fill="black"/>
</svg>
