<svg width="29" height="29" viewBox="0 0 29 29" fill="none" xmlns="http://www.w3.org/2000/svg">
<path d="M11.5977 2.40701C12.7716 0.239811 15.8643 0.190862 17.1062 2.31983L17.1782 2.44336C17.9001 3.68075 19.3487 4.2974 20.7409 3.95992L21.0534 3.88416C23.5038 3.29016 25.6818 5.56487 24.982 7.98721L24.9176 8.2103C24.5421 9.50982 25.0884 10.8993 26.2483 11.5952L26.927 12.0025C28.8117 13.1333 28.5368 15.9457 26.4688 16.6902C25.2221 17.139 24.5104 18.4517 24.8147 19.7414L25.1949 21.353C25.7705 23.7927 23.3596 25.8726 21.0216 24.9685C19.5367 24.3942 17.8508 25.0403 17.1388 26.4642L17.0842 26.5736C15.95 28.842 12.6967 28.7948 11.6287 26.4945C10.9626 25.0599 9.30473 24.3795 7.82291 24.9326L7.52002 25.0456C5.07456 25.9584 2.56211 23.8707 3.01156 21.2995L3.30877 19.5992C3.5245 18.365 2.84093 17.1498 1.67422 16.6932C-0.320163 15.9128 -0.598595 13.2048 1.19527 12.0349L1.91116 11.568C2.97653 10.8732 3.50388 9.59395 3.23766 8.35021L3.16892 8.02906C2.62371 5.48199 4.91479 3.23396 7.45106 3.82736L8.09906 3.97896C9.48629 4.30353 10.9192 3.65974 11.5977 2.40701Z" fill="#18BC9C"/>
<path d="M11.1808 13.3152C10.4179 13.3152 9.78396 13.0627 9.27906 12.5578C8.77416 12.0529 8.52172 11.4358 8.52172 10.7066C8.52172 9.98847 8.77416 9.37699 9.27906 8.87209C9.79518 8.35597 10.4291 8.09791 11.1808 8.09791C11.9438 8.09791 12.5777 8.35036 13.0826 8.85526C13.5875 9.36016 13.84 9.97725 13.84 10.7066C13.84 11.4358 13.5875 12.0529 13.0826 12.5578C12.589 13.0627 11.955 13.3152 11.1808 13.3152ZM10.2047 11.6995C10.4628 11.9576 10.7881 12.0866 11.1808 12.0866C11.5735 12.0866 11.8933 11.952 12.1402 11.6827C12.3982 11.4134 12.5272 11.088 12.5272 10.7066C12.5272 10.3251 12.3982 10.0053 12.1402 9.74724C11.8933 9.47797 11.5735 9.34333 11.1808 9.34333C10.7881 9.34333 10.4628 9.47797 10.2047 9.74724C9.95787 10.0053 9.83445 10.3251 9.83445 10.7066C9.83445 11.0992 9.95787 11.4302 10.2047 11.6995ZM9.31272 18.4315L17.1386 9.67992L17.9633 10.1343L10.1206 18.9027L9.31272 18.4315ZM18.1653 19.5423C17.6604 20.0472 17.0264 20.2996 16.2635 20.2996C15.5005 20.2996 14.8666 20.0472 14.3617 19.5423C13.8568 19.0374 13.6044 18.4203 13.6044 17.691C13.6044 16.9617 13.8568 16.3446 14.3617 15.8397C14.8666 15.3348 15.5005 15.0823 16.2635 15.0823C17.0264 15.0823 17.6604 15.3348 18.1653 15.8397C18.6702 16.3446 18.9226 16.9617 18.9226 17.691C18.9226 18.4203 18.6702 19.0374 18.1653 19.5423ZM15.2874 18.6671C15.5454 18.9252 15.8708 19.0542 16.2635 19.0542C16.6562 19.0542 16.976 18.9252 17.2228 18.6671C17.4809 18.3978 17.6099 18.0725 17.6099 17.691C17.6099 17.3095 17.4809 16.9897 17.2228 16.7317C16.976 16.4624 16.6562 16.3278 16.2635 16.3278C15.8708 16.3278 15.5454 16.4624 15.2874 16.7317C15.0405 16.9897 14.9171 17.3095 14.9171 17.691C14.9171 18.0725 15.0405 18.3978 15.2874 18.6671Z" fill="white"/>
</svg>
