<svg width="19" height="18" viewBox="0 0 19 18" fill="none" xmlns="http://www.w3.org/2000/svg">
<path d="M2.31885 1.98261H15.9493L15.0175 0.991304H3.12181L2.31885 1.98261ZM17.6048 2.21061C17.8922 2.54765 18.0608 2.97391 18.0608 3.46957V15.8609C18.0608 16.3867 17.8519 16.891 17.4801 17.2628C17.1083 17.6346 16.604 17.8435 16.0782 17.8435H2.19989C1.67407 17.8435 1.16979 17.6346 0.797978 17.2628C0.426166 16.891 0.217285 16.3867 0.217285 15.8609V3.46957C0.217285 2.97391 0.385807 2.54765 0.673285 2.21061L2.04129 0.545217C2.31885 0.208174 2.72529 0 3.1912 0H15.0869C15.5528 0 15.9592 0.208174 16.2269 0.545217L17.6048 2.21061ZM3.1912 14.8696H9.13902V11.8957H3.1912V14.8696Z" fill="#ECFFFB"/>
</svg>
