<svg width="20" height="22" viewBox="0 0 20 22" fill="none" xmlns="http://www.w3.org/2000/svg">
<path d="M18.5539 18.6227V9.31139H1.79346V18.6227C1.79346 19.6513 2.62722 20.485 3.65573 20.485H16.6916C17.7201 20.485 18.5539 19.6513 18.5539 18.6227Z" fill="#ECFFFB"/>
<path d="M18.5539 18.6227V5.58685C18.5539 4.55834 17.7201 3.72458 16.6916 3.72458H3.65573C2.62722 3.72458 1.79346 4.55834 1.79346 5.58685V18.6227M18.5539 18.6227C18.5539 19.6513 17.7201 20.485 16.6916 20.485H3.65573C2.62722 20.485 1.79346 19.6513 1.79346 18.6227M18.5539 18.6227V9.31139H1.79346V18.6227M13.8982 1.8623V5.58685M6.44914 1.8623V5.58685" stroke="#ECFFFB" stroke-width="1.86227" stroke-linecap="round" stroke-linejoin="round"/>
</svg>
