<svg width="20" height="20" viewBox="0 0 20 20" fill="none" xmlns="http://www.w3.org/2000/svg">
<path d="M2.61767 9.19211L9.62619 2.18359C11.9558 -0.136065 15.7128 -0.136065 18.0424 2.18359C20.362 4.50324 20.362 8.2702 18.0424 10.5998L11.0338 17.6083C8.70428 19.9279 4.93732 19.9279 2.61767 17.6083C0.298017 15.2787 0.298017 11.5217 2.61767 9.19211ZM4.02532 10.5998C2.98445 11.6307 2.63749 13.1078 2.99436 14.4262L8.93228 8.4982L13.1354 12.7013L16.6347 9.19211C18.1911 7.64567 18.1911 5.13767 16.6347 3.59124C15.0883 2.03489 12.5803 2.03489 11.0338 3.59124L4.02532 10.5998Z" fill="#ECFFFB"/>
</svg>
