<svg width="24" height="25" viewBox="0 0 24 25" fill="none" xmlns="http://www.w3.org/2000/svg">
<path d="M19 7.16748H16V6.16748C16 5.10661 15.5786 4.0892 14.8284 3.33905C14.0783 2.58891 13.0609 2.16748 12 2.16748C10.9391 2.16748 9.92172 2.58891 9.17157 3.33905C8.42143 4.0892 8 5.10661 8 6.16748V7.16748H5C4.73478 7.16748 4.48043 7.27284 4.29289 7.46037C4.10536 7.64791 4 7.90226 4 8.16748V19.1675C4 19.9631 4.31607 20.7262 4.87868 21.2888C5.44129 21.8514 6.20435 22.1675 7 22.1675H17C17.7956 22.1675 18.5587 21.8514 19.1213 21.2888C19.6839 20.7262 20 19.9631 20 19.1675V8.16748C20 7.90226 19.8946 7.64791 19.7071 7.46037C19.5196 7.27284 19.2652 7.16748 19 7.16748ZM10 6.16748C10 5.63705 10.2107 5.12834 10.5858 4.75327C10.9609 4.37819 11.4696 4.16748 12 4.16748C12.5304 4.16748 13.0391 4.37819 13.4142 4.75327C13.7893 5.12834 14 5.63705 14 6.16748V7.16748H10V6.16748ZM18 19.1675C18 19.4327 17.8946 19.6871 17.7071 19.8746C17.5196 20.0621 17.2652 20.1675 17 20.1675H7C6.73478 20.1675 6.48043 20.0621 6.29289 19.8746C6.10536 19.6871 6 19.4327 6 19.1675V9.16748H8V10.1675C8 10.4327 8.10536 10.6871 8.29289 10.8746C8.48043 11.0621 8.73478 11.1675 9 11.1675C9.26522 11.1675 9.51957 11.0621 9.70711 10.8746C9.89464 10.6871 10 10.4327 10 10.1675V9.16748H14V10.1675C14 10.4327 14.1054 10.6871 14.2929 10.8746C14.4804 11.0621 14.7348 11.1675 15 11.1675C15.2652 11.1675 15.5196 11.0621 15.7071 10.8746C15.8946 10.6871 16 10.4327 16 10.1675V9.16748H18V19.1675Z" fill="white"/>
<path d="M18 19.1675C18 19.4327 17.8946 19.6871 17.7071 19.8746C17.5196 20.0621 17.2652 20.1675 17 20.1675H7C6.73478 20.1675 6.48043 20.0621 6.29289 19.8746C6.10536 19.6871 6 19.4327 6 19.1675V9.16748H8V10.1675C8 10.4327 8.10536 10.6871 8.29289 10.8746C8.48043 11.0621 8.73478 11.1675 9 11.1675C9.26522 11.1675 9.51957 11.0621 9.70711 10.8746C9.89464 10.6871 10 10.4327 10 10.1675V9.16748H14V10.1675C14 10.4327 14.1054 10.6871 14.2929 10.8746C14.4804 11.0621 14.7348 11.1675 15 11.1675C15.2652 11.1675 15.5196 11.0621 15.7071 10.8746C15.8946 10.6871 16 10.4327 16 10.1675V9.16748H18V19.1675Z" fill="white"/>
</svg>
