<svg width="9" height="10" viewBox="0 0 9 10" fill="none" xmlns="http://www.w3.org/2000/svg">
<path d="M0.257286 8.53512C0.0620243 8.73038 0.0620243 9.04696 0.257286 9.24223C0.452549 9.43749 0.769131 9.43749 0.964393 9.24223L0.257286 8.53512ZM8.88901 1.1105C8.88901 0.834355 8.66516 0.610497 8.38901 0.610497L3.88901 0.610498C3.61287 0.610497 3.38901 0.834355 3.38901 1.1105C3.38901 1.38664 3.61287 1.6105 3.88901 1.6105L7.88901 1.6105L7.88901 5.6105C7.88901 5.88664 8.11287 6.1105 8.38901 6.1105C8.66516 6.1105 8.88901 5.88664 8.88901 5.6105L8.88901 1.1105ZM0.964393 9.24223L8.74257 1.46405L8.03546 0.756944L0.257286 8.53512L0.964393 9.24223Z" fill="#0A0A0A"/>
</svg>
